<svg xmlns="http://www.w3.org/2000/svg" width="27.063" height="21.082" viewBox="0 0 27.063 21.082">
    <path id="Pfad_6987"
          d="M167.192,85.169a1.441,1.441,0,0,1-.407-.058,21.547,21.547,0,0,1-6.3-3.185,1.43,1.43,0,0,1-.573-.983,22.171,22.171,0,0,1,.278-6.29,22.879,22.879,0,0,1,3.5-8.366,1.717,1.717,0,0,1,.718-.606,21.568,21.568,0,0,1,5.034-1.569,1.259,1.259,0,0,1,1.425.711c.053.11.11.222.167.332.031.06.063.12.092.18a15.953,15.953,0,0,1,1.714-.12c.835.011,1.668.069,2.474.126l.229.016.1-.193.166-.337a1.261,1.261,0,0,1,1.419-.716,21.56,21.56,0,0,1,5.02,1.56,1.784,1.784,0,0,1,.766.66l.258.415c.367.591.733,1.184,1.061,1.8a21.184,21.184,0,0,1,2.4,7.7c.035.323.066.647.1.969l.048.546-.029,2.368c-.022.267-.045.534-.084.8a1.547,1.547,0,0,1-.595,1.013,21.5,21.5,0,0,1-5.88,3.047,1.527,1.527,0,0,1-2.134-.743c-.246-.383-.48-.772-.72-1.17l-.316-.524a15.374,15.374,0,0,1-7.537,0l-.284.446c-.355.559-.7,1.105-1.061,1.648a1.2,1.2,0,0,1-1.034.525m-.735-1.694,0,.006,0-.006m13.08-1c.089.145.178.29.269.434a19.438,19.438,0,0,0,4.878-2.517c.016-.145.028-.293.04-.439l.025-.291-.043-2.243c-.03-.314-.059-.627-.094-.941a19.061,19.061,0,0,0-2.159-6.933c-.3-.571-.649-1.124-.991-1.676l-.19-.3a19.2,19.2,0,0,0-3.844-1.247c-.059.119-.117.24-.169.362a1.328,1.328,0,0,1-1.375.83l-.727-.05c-.811-.057-1.577-.111-2.35-.121a13.042,13.042,0,0,0-1.491.111l-.445.049a1.35,1.35,0,0,1-1.478-.852c-.047-.112-.1-.22-.155-.33a19.233,19.233,0,0,0-3.86,1.252,20.438,20.438,0,0,0-3.111,7.485,19.933,19.933,0,0,0-.28,5.346,19.432,19.432,0,0,0,4.847,2.5l.283-.441-2.2-1.064.759-1.028a1.594,1.594,0,0,1,2.12-.637,13.51,13.51,0,0,0,11.042.008,1.563,1.563,0,0,1,2.09.554l.85,1.007-1.482.783c-.248.134-.493.265-.743.385l-.018.01m5.37-2.245,0,0,0,0m-23.176-.016,0,0,0,0m3.553-12.6-.005,0Zm4.543-1.413h0m1.526-.364v0Zm6.364-.1-.012.024.012-.024m-8.77,0v0m8.547,13.431a3.161,3.161,0,0,1-2.183-.895,3.776,3.776,0,0,1,.012-5.386,3.145,3.145,0,0,1,2.917-.775,3.334,3.334,0,0,1,2.331,2.2,5.155,5.155,0,0,1,.182.785l.077.4-.01.143a3.885,3.885,0,0,1-1.078,2.558,3.143,3.143,0,0,1-2.248.967m-.016-5.029a1.012,1.012,0,0,0-.7.293,1.662,1.662,0,0,0-.005,2.3,1,1,0,0,0,1.463-.019,1.687,1.687,0,0,0,.463-1.082c-.01-.057-.02-.116-.03-.174a3.111,3.111,0,0,0-.1-.465,1.21,1.21,0,0,0-.837-.826,1.1,1.1,0,0,0-.247-.03M169.2,79.159a3.161,3.161,0,0,1-2.152-.859,3.771,3.771,0,0,1,.063-5.486,3.1,3.1,0,0,1,2.888-.69,3.343,3.343,0,0,1,2.282,2.186,5.22,5.22,0,0,1,.182.788l.077.4-.011.145a3.846,3.846,0,0,1-1.081,2.552,3.148,3.148,0,0,1-2.249.961m-.01-5.021a1.008,1.008,0,0,0-.678.267,1.656,1.656,0,0,0-.028,2.336,1,1,0,0,0,1.456-.032,1.711,1.711,0,0,0,.464-1.083c-.011-.055-.021-.112-.031-.169a2.958,2.958,0,0,0-.1-.465,1.214,1.214,0,0,0-.821-.82,1.021,1.021,0,0,0-.262-.034"
          transform="translate(-159.802 -64.086)" fill="#af9251"/>
</svg>
