<svg xmlns="http://www.w3.org/2000/svg" width="23.161" height="18.887" viewBox="0 0 23.161 18.887">
  <path id="Pfad_6940" data-name="Pfad 6940" d="M67.374,28.843A2.307,2.307,0,0,1,65.385,27.7a11.84,11.84,0,1,1,21.449-9.787,2.469,2.469,0,0,1-.376,2.314,18.812,18.812,0,0,1-3.967,3.729.917.917,0,0,1-1.455-.742v-6.6l-1.556-.01-.011,8.021a1.69,1.69,0,0,1-1.033,1.557c-.384.162-.779.321-.779.321a.916.916,0,0,1-1.26-.85V18.935l-1.559-.011-.012,7.251a1.682,1.682,0,0,1-1.3,1.645c-.225.053-.43.1-.591.151a.918.918,0,0,1-1.177-.879V21.254L70.2,21.239l-.011.009v5.794a1.69,1.69,0,0,1-1.5,1.678c-.442.051-.815.089-1.114.115-.068.006-.136.009-.2.009m8.268-17.052a10.008,10.008,0,0,0-8.668,14.99.462.462,0,0,0,.441.226c.259-.022.572-.053.94-.1V21.248A1.844,1.844,0,0,1,70.2,19.4h0l1.551.006a1.834,1.834,0,0,1,1.244.486v-.961A1.848,1.848,0,0,1,74.84,17.09h1.547a1.835,1.835,0,0,1,1.249.488v-.963a1.846,1.846,0,0,1,1.845-1.844h1.546a1.847,1.847,0,0,1,1.844,1.844v4.711A14.809,14.809,0,0,0,85,19.108a.634.634,0,0,0,.1-.6,10.023,10.023,0,0,0-9.46-6.721" transform="translate(-63.81 -9.956)" fill="#ba924b"/>
</svg>
