<svg xmlns="http://www.w3.org/2000/svg" width="20.703" height="20.703" viewBox="0 0 28.703 28.703">
  <g id="oTO2Ss" transform="translate(-2.914 -128.049)">
    <g id="Gruppe_21597" data-name="Gruppe 21597" transform="translate(2.914 128.049)">
      <path fill="#af9251" id="Pfad_7681" data-name="Pfad 7681" d="M31.617,130.46v23.882a1.075,1.075,0,0,0-.058.149,2.9,2.9,0,0,1-2.718,2.259q-11.572.006-23.144,0a2.871,2.871,0,0,1-2.78-2.78q-.007-11.572,0-23.144a2.73,2.73,0,0,1,.958-2.04,3.472,3.472,0,0,1,1.448-.736H29.207a1.144,1.144,0,0,0,.148.058,2.986,2.986,0,0,1,1.586.972A3.691,3.691,0,0,1,31.617,130.46ZM27.3,152.429c0-.13,0-.231,0-.332q0-3.839,0-7.678a4.936,4.936,0,0,0-2.135-4.219,4.346,4.346,0,0,0-5.174-.184,14.846,14.846,0,0,0-1.311,1.124v-1.583h-4.26v12.864h4.264v-.347q0-2.956,0-5.913c0-.513,0-1.027.038-1.539a2.145,2.145,0,0,1,1.537-1.837,2.1,2.1,0,0,1,2.2.656,2.388,2.388,0,0,1,.556,1.627q0,3.517,0,7.034v.327Zm-15.813-.006v-12.87H7.242v12.87Zm.453-17.92a2.558,2.558,0,0,0-2.56-2.567,2.57,2.57,0,0,0-.022,5.139A2.562,2.562,0,0,0,11.943,134.5Z" transform="translate(-2.914 -128.049)"/>
    </g>
  </g>
</svg>
