<svg xmlns="http://www.w3.org/2000/svg" width="42.505" height="42.501" viewBox="0 0 42.505 42.501">
    <path id="Pfad_6938" data-name="Pfad 6938"
          d="M127.039,42.5a3.9,3.9,0,0,1-2.768-1.144L106.934,24.02a3.913,3.913,0,0,1,0-5.536L124.271,1.146a3.919,3.919,0,0,1,5.537,0l17.337,17.338a3.913,3.913,0,0,1,0,5.536L129.808,41.357a3.9,3.9,0,0,1-2.768,1.144m0-40.668a2.068,2.068,0,0,0-1.472.61L108.231,19.781a2.083,2.083,0,0,0,0,2.943l17.337,17.338a2.085,2.085,0,0,0,2.944,0l17.337-17.338a2.083,2.083,0,0,0,0-2.943L128.511,2.444a2.068,2.068,0,0,0-1.472-.61"
          transform="translate(-105.787 -0.001)" fill="#ba924b"/>
</svg>
