<svg xmlns="http://www.w3.org/2000/svg" width="25.348" height="21.099" viewBox="0 0 25.348 21.099">
  <path id="Pfad_6980" data-name="Pfad 6980" d="M119.176,34.693a14.955,14.955,0,0,1-4.147-.581,14.319,14.319,0,0,1-3.645-1.632,1.915,1.915,0,0,1-.2-.155,1.1,1.1,0,0,1-.283-1.232,1.037,1.037,0,0,1,1.043-.651,8.89,8.89,0,0,0,4.234-.591,6.124,6.124,0,0,1-2.774-3.272,1.066,1.066,0,0,1,.085-.955,5.8,5.8,0,0,1-1.806-4.318,1.059,1.059,0,0,1,.521-.871.371.371,0,0,1,.045-.025,5.9,5.9,0,0,1-.5-1.753,5.715,5.715,0,0,1,.748-3.642,1.06,1.06,0,0,1,1.728-.158,12.449,12.449,0,0,0,7.91,4.5c0-.078,0-.158,0-.236a5.823,5.823,0,0,1,4.257-5.309A5.726,5.726,0,0,1,131.76,15a8.046,8.046,0,0,0,1.982-.789l.261-.132a1.059,1.059,0,0,1,1.489,1.271q-.091.28-.2.542a1.054,1.054,0,0,1,.568.321,1.14,1.14,0,0,1,.075,1.463l-.34.4c-.28.336-.56.673-.863.988a9.114,9.114,0,0,1-.712.643l-.2.165a14.78,14.78,0,0,1-6.4,12.337,13.434,13.434,0,0,1-6.18,2.341,15.768,15.768,0,0,1-2.062.136m-3.221-2.526a13.161,13.161,0,0,0,5.007.289,11.2,11.2,0,0,0,5.218-1.961,12.651,12.651,0,0,0,5.523-10.93,1.511,1.511,0,0,1,.4-.984,1.06,1.06,0,0,1-.553-1.4,1.438,1.438,0,0,1-.936-.369,3.719,3.719,0,0,0-6.354,2.366c-.008.281.007.561.022.851l.022.471a1.066,1.066,0,0,1-.322.8,1.118,1.118,0,0,1-.809.3,14.581,14.581,0,0,1-9.329-4.062,3.655,3.655,0,0,0,.011.853,3.727,3.727,0,0,0,1.638,2.67,1.059,1.059,0,0,1,.381,1.2,1.1,1.1,0,0,1-1.029.72,5.8,5.8,0,0,1-.721-.063,3.813,3.813,0,0,0,2.642,2.159,1.06,1.06,0,0,1,.011,2.053c-.184.048-.366.085-.543.113a3.9,3.9,0,0,0,2.711,1.234,1.059,1.059,0,0,1,.542,1.9,10.992,10.992,0,0,1-3.528,1.792m17.673-12.119h0m-2.212-4.968h0" transform="translate(-110.815 -13.594)" fill="#af9251"/>
</svg>
