<svg xmlns="http://www.w3.org/2000/svg" width="15.916" height="27.698" viewBox="0 0 15.916 27.698">
  <path id="Pfad_6976" data-name="Pfad 6976" d="M22.788,38.181H20.411a1.658,1.658,0,0,1-1.871-1.865V27.041l-2.01,0a1.631,1.631,0,0,1-1.838-1.825q-.006-1.835,0-3.664a1.645,1.645,0,0,1,1.85-1.852h2c0-.149,0-.3,0-.447,0-.828,0-1.682.074-2.54a6.646,6.646,0,0,1,6.536-6.2c.956-.037,1.911-.031,2.869-.023l.924.005A1.553,1.553,0,0,1,30.6,12.145q.01,1.862,0,3.73a1.571,1.571,0,0,1-1.662,1.653c-.532.012-1.065.017-1.6.022l-.943.011a1.366,1.366,0,0,0-.323.033c.007.029-.011.122-.014.293-.011.579-.008,1.157-.005,1.746H28.6A1.665,1.665,0,0,1,30.479,21.5q0,1.863,0,3.722A1.6,1.6,0,0,1,28.7,27L26.06,27v9.109c0,1.507-.566,2.068-2.086,2.068Zm-2.127-2.12H23.94V24.884l4.42,0q0-1.563,0-3.129H25.347c-.093,0-.188-.005-.289-.011l-1.12-.054,0-1.878c0-.66-.005-1.31.005-1.961a2.205,2.205,0,0,1,2.427-2.407l.954-.011c.387,0,.774-.007,1.161-.015q.008-1.41,0-2.8l-.473,0c-.924-.008-1.85-.015-2.773.021a4.575,4.575,0,0,0-4.5,4.262c-.066.769-.067,1.542-.067,2.363,0,.374,0,.75-.007,1.126l0,.238,0,1.2H16.812q0,1.552,0,3.1l2.443,0c.1,0,.2.006.3.015L20.66,25Z" transform="translate(-14.69 -10.483)" fill="#af9251"/>
</svg>
