<svg xmlns="http://www.w3.org/2000/svg" width="25.54" height="18.556" viewBox="0 0 25.54 18.556">
  <path id="Pfad_6981" data-name="Pfad 6981" d="M174.785,32.975h-.6c-2.507-.013-5-.089-7.341-.165a21.831,21.831,0,0,1-2.5-.253,3.944,3.944,0,0,1-3.392-3.348c-.2-1.165-.293-2.307-.36-3.272a34.7,34.7,0,0,1,.053-5.3,20.132,20.132,0,0,1,.34-2.519,3.982,3.982,0,0,1,3.6-3.26,62.229,62.229,0,0,1,6.662-.352l.315-.005c.383-.005.766,0,1.15,0h.184a.778.778,0,0,1,.384-.072l1.741.067c1.825.069,3.651.138,5.477.222a13.329,13.329,0,0,1,1.836.219,4.015,4.015,0,0,1,3.323,3.429,29.09,29.09,0,0,1,.376,6.152c-.047,1.409-.182,2.82-.314,4.186a4.152,4.152,0,0,1-1.9,3.294,4.939,4.939,0,0,1-2.246.677,63.77,63.77,0,0,1-6.8.307m-2.6-16.363c-.193,0-.386,0-.579,0l-.316.005a60.492,60.492,0,0,0-6.433.336,1.9,1.9,0,0,0-1.789,1.592,17.865,17.865,0,0,0-.3,2.257,32.664,32.664,0,0,0-.051,4.979c.065.914.156,1.994.336,3.07a1.819,1.819,0,0,0,1.613,1.6,19.893,19.893,0,0,0,2.252.232c2.325.075,4.8.151,7.283.163a64.746,64.746,0,0,0,7.164-.294,3,3,0,0,0,1.323-.354,2.059,2.059,0,0,0,.928-1.679c.131-1.367.264-2.745.308-4.088a27.015,27.015,0,0,0-.342-5.7,1.9,1.9,0,0,0-1.622-1.721,11.473,11.473,0,0,0-1.55-.185c-1.819-.084-3.64-.152-5.46-.22l-1.361-.053a1,1,0,0,1-.342.06l-.536,0h-.526M170.975,28.3a1.06,1.06,0,0,1-1.06-1.06v-7a1.059,1.059,0,0,1,1.589-.919l6.081,3.5a1.059,1.059,0,0,1,0,1.836l-6.081,3.5a1.059,1.059,0,0,1-.529.142m1.06-6.231V25.4l2.9-1.668Z" transform="translate(-160.52 -14.419)" fill="#af9251"/>
</svg>
