<svg xmlns="http://www.w3.org/2000/svg" width="21.678" height="18.81" viewBox="0 0 21.678 18.81">
  <path id="Pfad_6934" data-name="Pfad 6934" d="M114.516,20.746a2.51,2.51,0,0,1,.334-.6,1.71,1.71,0,0,1,.647-.411q9.432-3.125,18.869-6.229a1.308,1.308,0,0,1,1.806.964,1.572,1.572,0,0,1-.027.646q-1.331,5.7-2.679,11.4c-.359,1.527-.723,3.052-1.077,4.579a1.323,1.323,0,0,1-2.226.769q-1.913-1.557-3.815-3.125a.246.246,0,0,0-.372-.017c-1.1.837-2.21,1.661-3.318,2.489-.061.046-.124.093-.19.134a.624.624,0,0,1-1-.375c-.135-.5-.234-1.013-.343-1.522q-.539-2.5-1.071-4.992a.333.333,0,0,0-.222-.268c-1.42-.616-2.832-1.252-4.259-1.853a1.631,1.631,0,0,1-1.059-1.083Zm20.416-6.07-19.165,6.318c.092.05.132.076.175.1q2.223.974,4.446,1.95a.333.333,0,0,0,.332-.041q3.221-1.794,6.446-3.582l3.158-1.755a.649.649,0,0,1,.771.018c.342.266.335.679-.016,1.044l-6.408,6.7c-.048.05-.094.1-.15.165l6.579,5.383c1.279-5.442,2.55-10.845,3.833-16.3M122.163,28.162c.035-.091.055-.132.068-.176.224-.776.436-1.555.678-2.326a1.551,1.551,0,0,1,.337-.591c1.272-1.349,2.557-2.686,3.839-4.026.044-.047.085-.1.127-.146l-.022-.026L121.3,24.144l.866,4.018m1.064,1.023,1.91-1.431-1.216-.994-.694,2.425" transform="translate(-114.516 -13.42)" fill="#ba924b"/>
</svg>
