<svg xmlns="http://www.w3.org/2000/svg" xmlns:xlink="http://www.w3.org/1999/xlink" width="500" height="500"
     viewBox="0 53 49 51">
    <defs>
        <clipPath id="clip-path">
            <rect id="Rechteck_8457" data-name="Rechteck 8457" width="100" height="103.379" fill="#af9251"/>
        </clipPath>
    </defs>
    <g id="Gruppe_21476" data-name="Gruppe 21476" clip-path="url(#clip-path)">
        <path id="Pfad_6983" data-name="Pfad 6983"
              d="M13.345,80.609V69.3a1.713,1.713,0,0,0,.037-.175,5.124,5.124,0,0,1,5.073-4.579q5.3-.025,10.6,0a5.118,5.118,0,0,1,5.116,5.114q.03,5.3,0,10.593a5.1,5.1,0,0,1-3.743,4.906c-.331.094-.674.138-1.012.206H18.105c-.053-.013-.1-.029-.157-.037a5.04,5.04,0,0,1-4.329-3.5,9.71,9.71,0,0,1-.275-1.221m10.409,2.679q2.563,0,5.126,0a3.185,3.185,0,0,0,1.347-.255,3.006,3.006,0,0,0,1.861-2.878c.022-1.213.005-2.426.005-3.64,0-2.244,0-4.488,0-6.73a3.046,3.046,0,0,0-2.535-3.1,3.359,3.359,0,0,0-.626-.056q-5.167,0-10.333,0a3.058,3.058,0,0,0-3.168,3.091q-.017,5.245,0,10.492a3,3,0,0,0,.644,1.889,3.054,3.054,0,0,0,2.515,1.19c1.722.007,3.444,0,5.166,0"
              transform=" scale(1.3) translate(-5 -14.866)" fill="#af9251"/>
        <path id="Pfad_6984" data-name="Pfad 6984"
              d="M23.46,79.867a5.206,5.206,0,1,1,5.212-5.193,5.16,5.16,0,0,1-5.212,5.193m3.131-5.2a3.127,3.127,0,1,0-3.146,3.118,3.08,3.08,0,0,0,3.146-3.118"
              transform="scale(1.3) translate(-4.794 -14.161)" fill="#af9251"/>
    </g>
</svg>
